<?xml version="1.0" ?><!DOCTYPE svg  PUBLIC '-//W3C//DTD SVG 1.1//EN'  'http://www.w3.org/Graphics/SVG/1.1/DTD/svg11.dtd'><svg id="Lager_1" style="enable-background:new -265 388.9 64 64;" version="1.1" viewBox="-265 388.9 64 64" xml:space="preserve" xmlns="http://www.w3.org/2000/svg" xmlns:xlink="http://www.w3.org/1999/xlink"><g><path d="M-237.8,405.6c-8.4,2.6-13.1,11.6-10.5,20.1c2.6,8.5,11.6,13.1,20.1,10.5c8.4-2.6,13.1-11.6,10.5-20.1   C-220.4,407.7-229.4,403-237.8,405.6z M-236.6,409.5c2.1-0.7,4.4,0.5,5,2.6c0.7,2.1-0.5,4.4-2.6,5c-2.1,0.7-4.4-0.5-5-2.6   C-239.9,412.4-238.7,410.1-236.6,409.5z M-239.4,427.1c-2.1,0.7-4.4-0.5-5-2.6c-0.7-2.1,0.5-4.4,2.6-5c2.1-0.6,4.4,0.5,5,2.6   C-236.2,424.2-237.3,426.5-239.4,427.1z M-229.4,432.3c-2.1,0.7-4.4-0.5-5-2.6c-0.7-2.1,0.5-4.4,2.6-5s4.4,0.5,5,2.6   C-226.1,429.4-227.3,431.7-229.4,432.3z M-224.2,422.3c-2.1,0.7-4.4-0.5-5-2.6c-0.7-2.1,0.5-4.4,2.6-5c2.1-0.7,4.4,0.5,5,2.6   C-220.9,419.4-222.1,421.7-224.2,422.3z"/></g></svg>